<?xml version="1.0" encoding="UTF-8"?>
<svg id="Layer_1" data-name="Layer 1" xmlns="http://www.w3.org/2000/svg" viewBox="0 0 16 16">
  <defs>
    <style>
      .cls-1 {
        fill: #444;
        stroke-width: 0px;
      }
    </style>
  </defs>
  <path class="cls-1" d="m13.37,7.21s-.04-.03-.06-.03H2.7s-.05,0-.06.03c-.03.03-.04.1-.02.2l.42,1.52h9.92l.42-1.52c.03-.1.01-.17-.02-.2Z"/>
  <path class="cls-1" d="m13.77,2.4H2.23c-.68,0-1.23.55-1.23,1.23v4.07c0,.68.55,1.23,1.23,1.23h.56l-.4-1.46c-.04-.16-.02-.3.06-.41.06-.08.15-.12.25-.12h10.6c.1,0,.19.04.25.12.08.1.1.25.06.41l-.4,1.46h.56c.68,0,1.23-.55,1.23-1.23V3.63c0-.68-.55-1.23-1.23-1.23Zm.06,1.6c0,.15-.12.27-.27.27h-1.34c-.15,0-.27-.12-.27-.27v-.4c0-.15.12-.27.27-.27h1.34c.15,0,.27.12.27.27v.4Z"/>
  <path class="cls-1" d="m8,9.4c-.26,0-.47.23-.47.51v3.58c0,.28.21.51.47.51s.47-.23.47-.51v-3.58c0-.28-.21-.51-.47-.51Z"/>
  <path class="cls-1" d="m5.2,9.4c-.26,0-.47.21-.47.47v2.33c0,.26.21.47.47.47s.47-.21.47-.47v-2.33c0-.26-.21-.47-.47-.47Z"/>
  <path class="cls-1" d="m10.8,9.4c-.26,0-.47.21-.47.47v2.33c0,.26.21.47.47.47s.47-.21.47-.47v-2.33c0-.26-.21-.47-.47-.47Z"/>
</svg>