<svg xmlns="http://www.w3.org/2000/svg" width="24" height="24" fill="none"><g fill="#444" clip-path="url(#a)"><path d="M20.055 10.815s-.06-.045-.09-.045H4.05s-.075 0-.09.045c-.045.045-.06.15-.03.3l.63 2.28h14.88l.63-2.28c.045-.15.015-.255-.03-.3h.015Z"/><path d="M20.655 3.6H3.345c-1.02 0-1.845.825-1.845 1.845v6.105c0 1.02.825 1.845 1.845 1.845h.84l-.6-2.19c-.06-.24-.03-.45.09-.615.09-.12.225-.18.375-.18h15.9c.15 0 .285.06.375.18.12.15.15.375.09.615l-.6 2.19h.84c1.02 0 1.845-.825 1.845-1.845V5.445c0-1.02-.825-1.845-1.845-1.845Zm.09 2.4c0 .225-.18.405-.405.405h-2.01A.403.403 0 0 1 17.925 6v-.6c0-.225.18-.405.405-.405h2.01c.225 0 .405.18.405.405V6ZM12 14.1c-.39 0-.705.345-.705.765v5.37c0 .42.315.765.705.765.39 0 .705-.345.705-.765v-5.37c0-.42-.315-.765-.705-.765Zm-4.2 0a.705.705 0 0 0-.705.705V18.3a.705.705 0 1 0 1.41 0v-3.495A.705.705 0 0 0 7.8 14.1Zm8.4 0a.705.705 0 0 0-.705.705V18.3a.705.705 0 0 0 1.41 0v-3.495a.704.704 0 0 0-.705-.705Z"/></g><defs><clipPath id="a"><path fill="#fff" d="M0 0h24v24H0z"/></clipPath></defs></svg>