<?xml version="1.0" encoding="UTF-8"?>
<svg id="Layer_1" data-name="Layer 1" xmlns="http://www.w3.org/2000/svg" viewBox="0 0 16 16">
  <defs>
    <style>
      .cls-1 {
        fill: #444;
        stroke-width: 0px;
      }
    </style>
  </defs>
  <path class="cls-1" d="m12.27,3.81c-.27-1.1-1.26-1.9-2.42-1.9H3.5c-1.38,0-2.5,1.12-2.5,2.5v4c0,3.13,2.55,5.68,5.68,5.68,2.18,0,4.15-1.24,5.1-3.18,1.72.13,3.22-1.29,3.23-3.02v-1.06c0-1.57-1.2-2.86-2.73-3.01Zm.91,3.01v1.06c0,.55-.37,1.01-.86,1.16.02-.21.04-.42.04-.63v-2.73c.48.16.82.61.82,1.14Zm-2.65-2.41v4c0,2.12-1.73,3.85-3.85,3.85s-3.85-1.73-3.85-3.85v-4c0-.37.3-.68.68-.68h6.35c.37,0,.68.3.68.68Z"/>
</svg>