<svg xmlns="http://www.w3.org/2000/svg" width="24" height="24" fill="none"><g clip-path="url(#a)"><g clip-path="url(#b)"><path fill="#444" d="M18.405 5.715a3.743 3.743 0 0 0-3.63-2.85H5.25a3.75 3.75 0 0 0-3.75 3.75v6c0 4.695 3.825 8.52 8.52 8.52 3.27 0 6.225-1.86 7.65-4.77 2.58.195 4.83-1.935 4.845-4.53v-1.59c0-2.355-1.8-4.29-4.095-4.515l-.015-.015Zm1.365 4.515v1.59c0 .825-.555 1.515-1.29 1.74.03-.315.06-.63.06-.945V8.52c.72.24 1.23.915 1.23 1.71Zm-3.975-3.615v6a5.787 5.787 0 0 1-5.775 5.775 5.787 5.787 0 0 1-5.775-5.775v-6c0-.555.45-1.02 1.02-1.02h9.525c.555 0 1.02.45 1.02 1.02h-.015Z"/></g></g><defs><clipPath id="a"><path fill="#fff" d="M0 0h24v24H0z"/></clipPath><clipPath id="b"><path fill="#fff" d="M0 0h24v24H0z"/></clipPath></defs></svg>