<svg xmlns="http://www.w3.org/2000/svg" width="16" height="16" fill="none"><path fill="#444" d="M1 14.34V5.64c0-.72.348-1.366.88-1.632l5.86-2.943a.562.562 0 0 1 .52 0l5.86 2.943c.532.266.88.915.88 1.632v8.702c0 .365-.234.659-.525.659h-1.05c-.29 0-.525-.294-.525-.66V7.088c0-.487-.313-.88-.7-.88H3.8c-.387 0-.7.393-.7.88v7.254c0 .365-.234.659-.525.659h-1.05c-.29 0-.525-.294-.525-.66Zm10.675.66h-7.35c-.29 0-.525-.294-.525-.66v-1.538h8.4v1.539c0 .365-.234.659-.525.659ZM3.8 11.923v-1.759h8.4v1.759H3.8Zm0-2.638V7.087h8.4v2.198H3.8Z"/></svg>