<svg xmlns="http://www.w3.org/2000/svg" width="16" height="16" fill="none"><path fill="#444" d="M10.273 11.5c.273-.872.838-1.616 1.398-2.357.147-.194.295-.388.437-.585.563-.78.892-1.723.892-2.743C13 3.155 10.761 1 8 1S3 3.155 3 5.813c0 1.02.33 1.966.892 2.742.142.197.29.391.438.585.562.741 1.127 1.488 1.397 2.357h4.546v.003ZM8 15c1.256 0 2.273-.979 2.273-2.188v-.437H5.727v.438C5.727 14.02 6.744 15 8 15ZM5.727 5.812c0 .241-.204.438-.454.438a.448.448 0 0 1-.455-.438C4.818 4.12 6.241 2.75 8 2.75c.25 0 .455.197.455.438 0 .24-.205.437-.455.437-1.256 0-2.273.979-2.273 2.188Z"/></svg>