<svg width="16" height="16" viewBox="0 0 16 16" fill="none" xmlns="http://www.w3.org/2000/svg">
<path d="M10.2727 11.5C10.5455 10.6277 11.1108 9.88398 11.6705 9.14297C11.8182 8.94883 11.9659 8.75469 12.108 8.55781C12.6705 7.77852 13 6.83516 13 5.81523C13 3.15469 10.7614 1 8 1C5.23864 1 3 3.15469 3 5.8125C3 6.83242 3.32955 7.77852 3.89205 8.55508C4.03409 8.75195 4.18182 8.94609 4.32955 9.14023C4.89205 9.88125 5.45739 10.6277 5.72727 11.4973H10.2727V11.5ZM8 15C9.25568 15 10.2727 14.0211 10.2727 12.8125V12.375H5.72727V12.8125C5.72727 14.0211 6.74432 15 8 15ZM5.72727 5.8125C5.72727 6.05313 5.52273 6.25 5.27273 6.25C5.02273 6.25 4.81818 6.05313 4.81818 5.8125C4.81818 4.11992 6.24148 2.75 8 2.75C8.25 2.75 8.45455 2.94687 8.45455 3.1875C8.45455 3.42813 8.25 3.625 8 3.625C6.74432 3.625 5.72727 4.60391 5.72727 5.8125Z" fill="#444444"/>
</svg>
