<svg width="16" height="16" viewBox="0 0 16 16" fill="none" xmlns="http://www.w3.org/2000/svg">
<path d="M7.99984 1.33331C6.58535 1.33331 5.2288 1.89522 4.2286 2.89541C3.22841 3.8956 2.6665 5.25216 2.6665 6.66665C2.6665 10.2666 7.3665 14.3333 7.5665 14.5066C7.68726 14.6099 7.84094 14.6667 7.99984 14.6667C8.15874 14.6667 8.31242 14.6099 8.43317 14.5066C8.6665 14.3333 13.3332 10.2666 13.3332 6.66665C13.3332 5.25216 12.7713 3.8956 11.7711 2.89541C10.7709 1.89522 9.41432 1.33331 7.99984 1.33331ZM7.99984 13.1C6.57984 11.7666 3.99984 8.89331 3.99984 6.66665C3.99984 5.60578 4.42126 4.58836 5.17141 3.83822C5.92156 3.08807 6.93897 2.66665 7.99984 2.66665C9.0607 2.66665 10.0781 3.08807 10.8283 3.83822C11.5784 4.58836 11.9998 5.60578 11.9998 6.66665C11.9998 8.89331 9.41984 11.7733 7.99984 13.1ZM7.99984 3.99998C7.47242 3.99998 6.95685 4.15638 6.51832 4.44939C6.07979 4.74241 5.73799 5.15889 5.53616 5.64616C5.33432 6.13343 5.28152 6.6696 5.38441 7.18689C5.4873 7.70417 5.74128 8.17932 6.11422 8.55226C6.48716 8.9252 6.96231 9.17918 7.4796 9.28207C7.99688 9.38497 8.53306 9.33216 9.02033 9.13033C9.5076 8.92849 9.92407 8.5867 10.2171 8.14817C10.5101 7.70964 10.6665 7.19406 10.6665 6.66665C10.6665 5.9594 10.3856 5.28113 9.88546 4.78103C9.38536 4.28093 8.70708 3.99998 7.99984 3.99998ZM7.99984 7.99998C7.73613 7.99998 7.47834 7.92178 7.25908 7.77527C7.03981 7.62876 6.86891 7.42053 6.768 7.17689C6.66708 6.93326 6.64068 6.66517 6.69212 6.40653C6.74357 6.14788 6.87056 5.91031 7.05703 5.72384C7.2435 5.53737 7.48108 5.41038 7.73972 5.35893C7.99836 5.30749 8.26645 5.33389 8.51008 5.43481C8.75372 5.53572 8.96195 5.70662 9.10846 5.92589C9.25497 6.14515 9.33317 6.40294 9.33317 6.66665C9.33317 7.02027 9.19269 7.35941 8.94265 7.60946C8.6926 7.8595 8.35346 7.99998 7.99984 7.99998Z" fill="#1B1B1B"/>
</svg>
