<svg xmlns="http://www.w3.org/2000/svg" width="44" height="44" fill="none"><path fill="#FABF35" stroke="#FABF35" stroke-linecap="round" stroke-linejoin="round" stroke-width="1.5" d="M24.5 6.767v.002l3.224 6.447.002.003c.287.586.784 1.112 1.322 1.509.54.398 1.188.716 1.83.823h0l5.848.972c1.74.29 2.558 1.02 2.785 1.726.226.705-.012 1.77-1.265 3.015l-.002.002-4.547 4.547c-.497.497-.848 1.185-1.045 1.873-.197.689-.263 1.456-.11 2.14h0l.002.005 1.301 5.627c.499 2.165.08 3.281-.488 3.695-.568.414-1.764.473-3.68-.659l-5.48-3.244s0 0 0 0c-.64-.379-1.436-.545-2.19-.545-.757 0-1.555.166-2.2.542h0l-.005.002-5.481 3.245h-.001c-1.903 1.13-3.1 1.07-3.671.652-.572-.417-.993-1.536-.496-3.687h0l1.302-5.628h0l.001-.005c.153-.684.088-1.451-.11-2.14-.196-.688-.547-1.376-1.045-1.873l-4.546-4.547c-1.246-1.245-1.485-2.312-1.26-3.018.225-.705 1.038-1.435 2.778-1.725l5.848-.971.002-.001c.633-.107 1.277-.427 1.813-.825.535-.396 1.031-.921 1.319-1.507L19.48 6.77s0 0 0 0c.825-1.643 1.78-2.213 2.517-2.213.735 0 1.686.568 2.503 2.21Z"/></svg>