<svg xmlns="http://www.w3.org/2000/svg" width="16" height="16" fill="none"><g clip-path="url(#a)"><path fill="#444" d="M8 15c-2.76 0-5-2.352-5-5.25 0-2.494 3.39-7.172 4.339-8.43A.796.796 0 0 1 7.977 1h.046c.25 0 .482.115.638.32C9.61 2.578 13 7.256 13 9.75 13 12.648 10.76 15 8 15Zm-2.5-4.813a.429.429 0 0 0-.417-.437.429.429 0 0 0-.416.438c0 1.692 1.304 3.062 2.916 3.062.23 0 .417-.197.417-.438a.429.429 0 0 0-.417-.437c-1.15 0-2.083-.979-2.083-2.188Z"/></g><defs><clipPath id="a"><path fill="#fff" d="M3 1h10v14H3z"/></clipPath></defs></svg>