<svg xmlns="http://www.w3.org/2000/svg" width="14" height="14" fill="none"><path fill="#1B1B1B" d="M11.96 7.667c-.147 0-.3-.047-.447-.08a6.29 6.29 0 0 1-.873-.26 1.333 1.333 0 0 0-1.653.666l-.147.3A8.12 8.12 0 0 1 7.067 6.96a8.12 8.12 0 0 1-1.334-1.773L6.013 5a1.333 1.333 0 0 0 .667-1.653 6.887 6.887 0 0 1-.26-.874c-.033-.146-.06-.3-.08-.453a2 2 0 0 0-2-1.66h-2a2 2 0 0 0-2 2.273 12.666 12.666 0 0 0 11.013 10.974h.254a2 2 0 0 0 1.827-1.185 2 2 0 0 0 .173-.822v-2a2 2 0 0 0-1.647-1.933Zm.333 4a.666.666 0 0 1-.482.64.705.705 0 0 1-.29.026A11.333 11.333 0 0 1 1.712 2.48a.727.727 0 0 1 .167-.547.666.666 0 0 1 .5-.226h2a.667.667 0 0 1 .667.526 7.414 7.414 0 0 0 .407 1.573l-.934.434a.667.667 0 0 0-.327.887A9.66 9.66 0 0 0 8.86 9.793a.667.667 0 0 0 .507 0 .667.667 0 0 0 .38-.346l.413-.934c.345.124.697.226 1.053.307.178.04.358.073.54.1a.667.667 0 0 1 .527.667l.013 2.08Z"/></svg>