<?xml version="1.0" encoding="UTF-8"?>
<svg id="Layer_1" data-name="Layer 1" xmlns="http://www.w3.org/2000/svg" viewBox="0 0 16 16">
  <defs>
    <style>
      .cls-1 {
        fill: #444;
        stroke-width: 0px;
      }
    </style>
  </defs>
  <path class="cls-1" d="m14.5,12.97h-6.02s.02-.08.02-.12v-6.69c.61-.69,1.52-.66,2.1.11.1.13.25.2.4.2.1,0,.21-.03.3-.1.22-.17.27-.48.1-.7-.74-.99-1.93-1.24-2.9-.76v-.78c.48-.7,1.2-1.12,2-1.12s1.59.44,2.08,1.21c.09.15.26.24.42.24.09,0,.18-.02.26-.08.23-.15.31-.46.16-.69-.66-1.05-1.75-1.68-2.92-1.68-.95,0-1.84.42-2.5,1.13-.66-.72-1.55-1.13-2.5-1.13-1.17,0-2.27.63-2.92,1.68-.15.23-.08.54.16.69.23.15.54.08.69-.16.48-.77,1.24-1.21,2.08-1.21s1.52.41,2,1.12v3.69c-.97-.48-2.16-.23-2.9.76-.17.22-.12.53.1.7.22.17.53.12.7-.1.58-.77,1.49-.8,2.1-.11v3.77s.01.08.02.12H1.5c-.28,0-.5.22-.5.5s.22.5.5.5h13c.28,0,.5-.22.5-.5s-.22-.5-.5-.5Z"/>
  <path class="cls-1" d="m2.5,6.47c.07,0,.13-.01.19-.04.06-.02.12-.06.16-.11.1-.09.15-.22.15-.35,0-.06-.01-.13-.04-.19-.02-.06-.06-.12-.11-.16-.04-.05-.1-.09-.16-.11-.18-.08-.41-.03-.54.11-.05.04-.09.1-.11.16-.03.06-.04.13-.04.19,0,.13.05.26.15.35.09.1.22.15.35.15Z"/>
  <path class="cls-1" d="m13.15,5.62c-.05.04-.09.1-.11.16-.03.06-.04.13-.04.19,0,.13.05.26.15.35.09.1.22.15.35.15.07,0,.13-.01.19-.04.06-.02.12-.06.16-.11.1-.09.15-.22.15-.35,0-.06-.01-.13-.04-.19-.02-.06-.06-.12-.11-.16-.04-.05-.1-.09-.16-.11-.18-.08-.41-.03-.54.11Z"/>
  <path class="cls-1" d="m11.69,7.51c-.18-.08-.41-.03-.54.11-.05.04-.09.1-.11.16-.03.06-.04.13-.04.19,0,.13.05.26.15.35.09.1.22.15.35.15.07,0,.13-.01.19-.04.06-.02.12-.06.16-.11.1-.09.15-.22.15-.35,0-.06-.01-.13-.04-.19-.02-.06-.06-.12-.11-.16-.04-.05-.1-.09-.16-.11Z"/>
  <path class="cls-1" d="m4.69,11.43c.06-.02.12-.06.16-.11.1-.09.15-.22.15-.35,0-.06-.01-.13-.04-.19-.02-.06-.06-.12-.11-.16-.04-.05-.1-.09-.16-.11-.18-.08-.41-.03-.54.11-.05.04-.09.1-.11.16-.03.06-.04.13-.04.19,0,.13.05.26.15.35.09.1.22.15.35.15.07,0,.13-.01.19-.04Z"/>
</svg>