<svg xmlns="http://www.w3.org/2000/svg" width="24" height="24" fill="none"><g clip-path="url(#a)"><g fill="#444" clip-path="url(#b)"><path d="M21.286 19.3h-8.6s.028-.117.028-.175V9.327c.872-1.01 2.172-.966 3 .161.143.19.357.293.572.293a.698.698 0 0 0 .377-.107.723.723 0 0 0 .265-.296.745.745 0 0 0-.07-.768C15.8 7.16 14.1 6.794 12.713 7.497V6.355c.686-1.026 1.715-1.64 2.857-1.64 1.143 0 2.272.644 2.972 1.771.128.22.371.352.6.352a.59.59 0 0 0 .371-.117c.329-.22.443-.674.229-1.01-.943-1.538-2.5-2.461-4.172-2.461-1.357 0-2.628.615-3.571 1.655C11.057 3.85 9.786 3.25 8.429 3.25c-1.672 0-3.243.923-4.172 2.46a.735.735 0 0 0 .229 1.01c.328.22.771.118.985-.234.686-1.127 1.772-1.772 2.972-1.772s2.171.6 2.857 1.64v5.404c-1.386-.703-3.086-.336-4.143 1.113a.74.74 0 0 0 .143 1.025c.314.25.757.176 1-.146.829-1.128 2.129-1.171 3-.161v5.52s.014.118.029.177H2.714c-.4 0-.714.322-.714.732s.314.732.714.732h18.572c.4 0 .714-.322.714-.732a.716.716 0 0 0-.714-.732v.014Z"/><path d="M5.125 10.088a.507.507 0 0 0 .237-.05.444.444 0 0 0 .2-.138.586.586 0 0 0 .188-.438.542.542 0 0 0-.05-.237.444.444 0 0 0-.138-.2.444.444 0 0 0-.2-.138.614.614 0 0 0-.675.138.444.444 0 0 0-.137.2.542.542 0 0 0-.05.238c0 .162.063.325.188.437a.586.586 0 0 0 .437.188Zm13.313-1.063a.444.444 0 0 0-.138.2.542.542 0 0 0-.05.238c0 .162.063.325.188.437a.586.586 0 0 0 .437.188.507.507 0 0 0 .238-.05.444.444 0 0 0 .2-.138.586.586 0 0 0 .187-.438.542.542 0 0 0-.05-.237.444.444 0 0 0-.137-.2.444.444 0 0 0-.2-.138.614.614 0 0 0-.675.138Zm-1.825 2.362a.614.614 0 0 0-.675.138.444.444 0 0 0-.138.2.542.542 0 0 0-.05.238c0 .162.063.325.188.437a.586.586 0 0 0 .437.188.507.507 0 0 0 .238-.05.444.444 0 0 0 .2-.138.586.586 0 0 0 .187-.438.542.542 0 0 0-.05-.237.445.445 0 0 0-.137-.2.445.445 0 0 0-.2-.138Zm-8.75 4.9a.444.444 0 0 0 .2-.137.586.586 0 0 0 .187-.437.542.542 0 0 0-.05-.238.444.444 0 0 0-.137-.2.444.444 0 0 0-.2-.138.614.614 0 0 0-.676.138.444.444 0 0 0-.137.2.542.542 0 0 0-.05.238c0 .162.063.325.188.437a.586.586 0 0 0 .437.188.507.507 0 0 0 .237-.05Z"/></g></g><defs><clipPath id="a"><path fill="#fff" d="M0 0h24v24H0z"/></clipPath><clipPath id="b"><path fill="#fff" d="M0 0h24v24H0z"/></clipPath></defs></svg>