<svg xmlns="http://www.w3.org/2000/svg" width="24" height="24" fill="none"><g clip-path="url(#a)"><g fill="#444" clip-path="url(#b)"><path d="M5.813 5.28c.756 0 1.375-.619 1.375-1.375 0-.509-.62-1.568-1.018-2.214a.424.424 0 0 0-.715 0c-.412.646-1.018 1.705-1.018 2.214 0 .756.62 1.375 1.375 1.375Zm12.375 2.75c.756 0 1.375-.619 1.375-1.375 0-.509-.62-1.568-1.018-2.214a.423.423 0 0 0-.715 0c-.412.646-1.017 1.705-1.017 2.214 0 .756.618 1.375 1.375 1.375ZM12 13.626a3.437 3.437 0 0 0 3.438-3.437c0-1.265-1.527-3.905-2.544-5.528a1.041 1.041 0 0 0-1.774 0C10.102 6.27 8.576 8.91 8.576 10.19a3.437 3.437 0 0 0 3.438 3.437H12ZM9.8 10.85c.096 0 .165.082.165.165 0 .66.536 1.21 1.196 1.21.097 0 .179.082.179.165 0 .082-.082.179-.179.179a1.54 1.54 0 0 1-1.54-1.554c0-.096.083-.165.179-.165Z"/><path d="M20.938 19.126h-7.852l6.476-5.404v1.28a.68.68 0 0 0 .688.687.68.68 0 0 0 .688-.688v-2.75s-.014-.069-.014-.096c0-.041 0-.096-.028-.137a.56.56 0 0 0-.069-.124l-.04-.083s-.014 0-.028-.014a.298.298 0 0 0-.124-.096.248.248 0 0 0-.096-.069l-.124-.04c-.041 0-.096-.028-.137-.028H17.5a.68.68 0 0 0-.688.687.68.68 0 0 0 .688.688h.852L11.19 18.92l-5.445-5.445a.68.68 0 0 0-.976 0 .68.68 0 0 0 0 .976l4.675 4.675h-6.38a.68.68 0 0 0-.688.688.68.68 0 0 0 .688.687h17.875a.68.68 0 0 0 .687-.687.68.68 0 0 0-.688-.688Z"/></g></g><defs><clipPath id="a"><path fill="#fff" d="M0 0h24v24H0z"/></clipPath><clipPath id="b"><path fill="#fff" d="M0 0h24v24H0z"/></clipPath></defs></svg>