<?xml version="1.0" encoding="UTF-8"?>
<svg id="Layer_1" data-name="Layer 1" xmlns="http://www.w3.org/2000/svg" viewBox="0 0 16 16">
  <defs>
    <style>
      .cls-1 {
        fill: #444;
        stroke-width: 0px;
      }
    </style>
  </defs>
  <path class="cls-1" d="m3.5,3.84c.55,0,1-.45,1-1,0-.37-.45-1.14-.74-1.61-.12-.19-.4-.19-.52,0-.3.47-.74,1.24-.74,1.61,0,.55.45,1,1,1Z"/>
  <path class="cls-1" d="m12.5,5.84c.55,0,1-.45,1-1,0-.37-.45-1.14-.74-1.61-.12-.19-.4-.19-.52,0-.3.47-.74,1.24-.74,1.61,0,.55.45,1,1,1Z"/>
  <path class="cls-1" d="m8,9.91c1.38,0,2.5-1.12,2.5-2.5,0-.92-1.11-2.84-1.85-4.02-.3-.48-.99-.48-1.29,0-.74,1.17-1.85,3.09-1.85,4.02,0,1.38,1.12,2.5,2.5,2.5Zm-1.6-2.02c.07,0,.12.06.12.12,0,.48.39.88.87.88.07,0,.13.06.13.12s-.06.13-.13.13c-.62,0-1.12-.5-1.12-1.13,0-.07.06-.12.13-.12Z"/>
  <path class="cls-1" d="m14.5,13.91h-5.71l4.71-3.93v.93c0,.28.22.5.5.5s.5-.22.5-.5v-2s-.01-.05-.01-.07c0-.03,0-.07-.02-.1-.01-.03-.03-.06-.05-.09-.01-.02-.02-.04-.03-.06,0,0-.01,0-.02-.01-.02-.03-.05-.05-.09-.07-.02-.02-.04-.04-.07-.05-.03-.01-.06-.02-.09-.03-.03,0-.07-.02-.1-.02,0,0-.01,0-.02,0h-2c-.28,0-.5.22-.5.5s.22.5.5.5h.62l-5.21,4.35-3.96-3.96c-.2-.2-.51-.2-.71,0s-.2.51,0,.71l3.4,3.4H1.5c-.28,0-.5.22-.5.5s.22.5.5.5h13c.28,0,.5-.22.5-.5s-.22-.5-.5-.5Z"/>
</svg>