<svg width="40" height="40" viewBox="0 0 40 40" fill="none" xmlns="http://www.w3.org/2000/svg">
<path d="M27.6857 5.68213H31.9408C32.3968 5.68213 32.8341 5.86504 33.1565 6.19063C33.4789 6.51621 33.66 6.9578 33.66 7.41825V36.0643C33.66 36.5247 33.4789 36.9663 33.1565 37.2919C32.8341 37.6175 32.3968 37.8004 31.9408 37.8004H7.87157C7.41561 37.8004 6.97831 37.6175 6.6559 37.2919C6.33348 36.9663 6.15234 36.5247 6.15234 36.0643V7.41825C6.15234 6.9578 6.33348 6.51621 6.6559 6.19063C6.97831 5.86504 7.41561 5.68213 7.87157 5.68213H13.8889V8.28631H25.9235V5.68213H27.6857Z" stroke="#A9DFD8" stroke-width="4" stroke-linejoin="round"/>
<path d="M22.4868 16.0981L15.6099 23.0434H24.2094L17.3291 29.9879M13.8906 3.07715H25.9252V8.28552H13.8906V3.07715Z" stroke="#A9DFD8" stroke-width="4" stroke-linecap="round" stroke-linejoin="round"/>
</svg>
