<svg width="275" height="37" viewBox="0 0 275 37" fill="none" xmlns="http://www.w3.org/2000/svg">
<path d="M10.5787 6.99546V4.86466C10.5787 2.29162 11.4807 1.0453 14.2279 1.0453C16.483 1.0453 17.4261 2.57304 17.6311 5.95016C17.9181 10.3726 17.9591 14.4734 17.6311 18.3731C17.5491 19.4184 17.3441 20.3029 17.0571 21.0668C17.4671 21.0668 17.8771 21.0668 18.3692 21.0668C18.8612 21.0668 19.3532 21.0668 19.7633 21.0668C19.4762 20.3029 19.2302 19.4184 19.1482 18.3731C18.8202 14.4734 18.6972 10.3726 19.1482 5.95016C19.4762 2.33182 20.2553 1.0453 22.7564 1.0453C25.5856 1.0453 26.2827 2.53284 26.2827 4.86466V6.99546C26.8157 6.79444 27.9228 6.79444 28.4558 6.99546V4.86466C28.4558 2.29162 29.3989 1.0453 32.146 1.0453C34.5652 1.0453 35.4673 2.57304 35.7543 5.95016C36.0413 10.3726 36.0823 14.4734 35.7543 18.3731C35.4263 21.4688 34.1962 23.1976 32.5971 23.8006C30.6289 24.6047 27.7588 24.8459 25.2576 24.5243C25.2576 24.7655 25.2986 25.0872 25.2986 25.3686C25.2986 25.6098 25.2986 25.851 25.2986 26.0923C27.4307 25.9716 29.5629 25.8108 31.777 25.6098C34.9342 25.2882 36.7383 27.5798 36.7383 30.3941C36.7383 33.8516 34.9342 35.6206 31.736 35.9422C22.5924 36.8267 14.1049 36.8267 4.96132 35.9422C1.84512 35.6206 0 33.8516 0 30.3941C0 27.5798 1.84512 25.2882 4.96132 25.6098C7.13445 25.8108 9.26659 25.9716 11.3987 26.0923C11.3987 25.851 11.3987 25.6098 11.3987 25.3686C11.3987 25.0872 11.4397 24.8057 11.4397 24.5645C8.97957 24.8459 6.19139 24.6047 4.26427 23.8006C2.62417 23.1976 1.27108 21.4688 1.06607 18.3731C0.738047 14.4734 0.615039 10.0107 1.06607 5.95016C1.43509 2.33182 2.21414 1.0453 4.92031 1.0453C7.66749 1.0453 8.40553 2.53284 8.40553 4.86466V6.99546C8.97957 6.79444 9.96363 6.79444 10.5787 6.99546ZM25.1756 14.3528C26.5697 14.3528 27.9638 14.7146 28.9478 15.2774C29.6449 15.6795 30.4239 14.594 29.7269 13.9909C28.5788 13.1466 26.6107 12.8652 25.3806 12.9858C24.5606 13.026 24.5606 14.3528 25.1756 14.3528ZM7.29846 14.3528C8.69255 14.3528 10.0456 14.7146 11.0707 15.2774C11.7267 15.6795 12.5468 14.594 11.8088 13.9909C10.7427 13.1466 8.77456 12.8652 7.46247 12.9858C6.68343 13.026 6.68342 14.3528 7.29846 14.3528Z" fill="#0098FF"/>
<path d="M54.9105 8.40259C53.7214 8.64381 52.9424 8.72422 52.0813 9.00565C51.5483 9.16646 51.7533 10.0509 52.4503 9.89013C58.1087 8.72422 65.3252 8.08096 68.3184 8.08096C72.0086 8.08096 74.5098 8.92524 74.9198 11.3375C75.2068 13.1064 74.1817 14.6342 70.4915 14.996C64.0131 15.6393 54.9515 15.5589 50.1542 15.2372C44.9059 14.8352 42.4047 13.9105 41.5846 11.9003C40.7236 9.60871 40.7236 6.43261 41.5846 4.14099C42.4047 2.0906 44.4958 1.12571 47.9401 0.884484C51.0153 0.723668 65.6532 0.683465 68.7284 0.844278C72.1316 1.00509 74.0587 1.76897 74.0587 3.37712C74.0587 4.98527 72.3366 5.90996 68.7284 5.90996H54.5825C54.9515 6.67383 55.0745 7.67892 54.9105 8.40259ZM39.7805 18.6948C39.7805 17.167 41.2156 15.8805 43.5528 16.0413C52.3273 16.6846 63.6031 16.6444 72.7056 16.0413C75.0838 15.8805 76.5189 17.167 76.5189 18.6948C76.5189 20.5039 75.0838 21.4688 72.6646 21.6296C63.6031 22.2729 52.3273 22.2729 43.5528 21.6296C41.2156 21.4286 39.7805 20.5039 39.7805 18.6948ZM48.1861 31.2383C44.2908 31.1981 41.5436 30.2332 41.3386 28.0622C41.1336 25.8912 44.4138 24.4841 48.8011 23.881C54.7055 23.1172 61.7169 22.5141 67.2523 23.4388C71.1475 24.1223 73.2797 25.4088 74.1817 26.7355C75.5348 28.6653 75.1248 32.2836 73.5667 34.2134C72.1316 35.9422 69.4664 36.9473 65.2432 36.9875C60.7739 37.1483 58.0267 35.7412 57.5757 33.8114C57.0016 31.6806 58.0677 29.1477 59.8718 27.62C60.1998 27.3386 59.4208 27.1376 59.0928 27.419C55.9356 29.7106 52.4503 31.3188 48.1861 31.2383Z" fill="#0098FF"/>
<path d="M90.1397 6.99546V4.86466C90.1397 2.29162 91.0418 1.0453 93.789 1.0453C96.0441 1.0453 96.9872 2.57304 97.1922 5.95016C97.4792 10.3726 97.5202 14.4734 97.1922 18.3731C97.1102 19.4184 96.9052 20.3029 96.6182 21.0668C97.0282 21.0668 97.4382 21.0668 97.9302 21.0668C98.4223 21.0668 98.9143 21.0668 99.3243 21.0668C99.0373 20.3029 98.7913 19.4184 98.7093 18.3731C98.3813 14.4734 98.2583 10.3726 98.7093 5.95016C99.0373 2.33182 99.8164 1.0453 102.318 1.0453C105.147 1.0453 105.844 2.53284 105.844 4.86466V6.99546C106.377 6.79444 107.484 6.79444 108.017 6.99546V4.86466C108.017 2.29162 108.96 1.0453 111.707 1.0453C114.126 1.0453 115.028 2.57304 115.315 5.95016C115.602 10.3726 115.643 14.4734 115.315 18.3731C114.987 21.4688 113.757 23.1976 112.158 23.8006C110.19 24.6047 107.32 24.8459 104.819 24.5243C104.819 24.7655 104.86 25.0872 104.86 25.3686C104.86 25.6098 104.86 25.851 104.86 26.0923C106.992 25.9716 109.124 25.8108 111.338 25.6098C114.495 25.2882 116.299 27.5798 116.299 30.3941C116.299 33.8516 114.495 35.6206 111.297 35.9422C102.154 36.8267 93.666 36.8267 84.5224 35.9422C81.4062 35.6206 79.5611 33.8516 79.5611 30.3941C79.5611 27.5798 81.4062 25.2882 84.5224 25.6098C86.6955 25.8108 88.8277 25.9716 90.9598 26.0923C90.9598 25.851 90.9598 25.6098 90.9598 25.3686C90.9598 25.0872 91.0008 24.8057 91.0008 24.5645C88.5406 24.8459 85.7525 24.6047 83.8253 23.8006C82.1852 23.1976 80.8322 21.4688 80.6271 18.3731C80.2991 14.4734 80.1761 10.0107 80.6271 5.95016C80.9962 2.33182 81.7752 1.0453 84.4814 1.0453C87.2286 1.0453 87.9666 2.53284 87.9666 4.86466V6.99546C88.5406 6.79444 89.5247 6.79444 90.1397 6.99546ZM104.737 14.3528C106.131 14.3528 107.525 14.7146 108.509 15.2774C109.206 15.6795 109.985 14.594 109.288 13.9909C108.14 13.1466 106.172 12.8652 104.942 12.9858C104.122 13.026 104.122 14.3528 104.737 14.3528ZM86.8595 14.3528C88.2536 14.3528 89.6067 14.7146 90.6318 15.2774C91.2878 15.6795 92.1079 14.594 91.3698 13.9909C90.3037 13.1466 88.3356 12.8652 87.0235 12.9858C86.2445 13.026 86.2445 14.3528 86.8595 14.3528Z" fill="#0098FF"/>
<path d="M134.472 8.40259C133.283 8.64381 132.503 8.72422 131.642 9.00565C131.109 9.16646 131.314 10.0509 132.011 9.89013C137.67 8.72422 144.886 8.08096 147.879 8.08096C151.57 8.08096 154.071 8.92524 154.481 11.3375C154.768 13.1064 153.743 14.6342 150.053 14.996C143.574 15.6393 134.513 15.5589 129.715 15.2372C124.467 14.8352 121.966 13.9105 121.146 11.9003C120.285 9.60871 120.285 6.43261 121.146 4.14099C121.966 2.0906 124.057 1.12571 127.501 0.884484C130.576 0.723668 145.214 0.683465 148.289 0.844278C151.693 1.00509 153.62 1.76897 153.62 3.37712C153.62 4.98527 151.898 5.90996 148.289 5.90996H134.144C134.513 6.67383 134.636 7.67892 134.472 8.40259ZM119.342 18.6948C119.342 17.167 120.777 15.8805 123.114 16.0413C131.888 16.6846 143.164 16.6444 152.267 16.0413C154.645 15.8805 156.08 17.167 156.08 18.6948C156.08 20.5039 154.645 21.4688 152.226 21.6296C143.164 22.2729 131.888 22.2729 123.114 21.6296C120.777 21.4286 119.342 20.5039 119.342 18.6948ZM127.747 31.2383C123.852 31.1981 121.105 30.2332 120.9 28.0622C120.695 25.8912 123.975 24.4841 128.362 23.881C134.267 23.1172 141.278 22.5141 146.813 23.4388C150.709 24.1223 152.841 25.4088 153.743 26.7355C155.096 28.6653 154.686 32.2836 153.128 34.2134C151.693 35.9422 149.027 36.9473 144.804 36.9875C140.335 37.1483 137.588 35.7412 137.137 33.8114C136.563 31.6806 137.629 29.1477 139.433 27.62C139.761 27.3386 138.982 27.1376 138.654 27.419C135.497 29.7106 132.011 31.3188 127.747 31.2383Z" fill="#0098FF"/>
<path d="M193.696 24.9666C193.573 27.3788 193.409 29.791 193.163 32.1228C192.835 35.3391 190.785 36.9473 187.915 36.9473C184.594 36.9473 182.38 35.0979 182.749 31.4796C183.815 22.8358 183.815 14.1517 182.79 5.86975C182.38 1.88958 184.594 0 187.915 0C190.785 0 192.835 1.60815 193.163 4.90486C193.368 6.79444 193.491 8.68402 193.614 10.654L194.803 10.5334C196.69 10.2118 197.797 12.423 197.797 17.7701C197.797 23.1574 196.69 25.3284 194.803 25.1274L193.696 24.9666ZM165.61 35.3793C161.796 35.3793 159.459 32.6053 159.295 25.6098C159.131 19.3782 159.951 16.2021 162.247 14.1115C164.297 12.222 165.528 10.6138 165.528 6.91505C165.528 2.69365 167.045 1.12571 170.735 1.12571C174.097 1.12571 175.819 2.69365 175.819 6.75424C175.819 10.1314 177.746 11.9807 179.796 14.1517C181.355 15.8001 182.462 18.6144 182.216 26.0119C181.929 34.0928 180.616 35.5401 177.746 35.5401C174.056 35.5401 172.785 34.2536 172.785 25.9716C172.785 21.1472 172.375 18.1319 170.735 15.4383C170.243 14.6342 168.972 15.197 169.71 16.2825C170.981 18.2525 171.555 21.1472 171.555 26.5747C171.555 34.0928 170.079 35.3793 165.61 35.3793Z" fill="#626262"/>
<path d="M233.149 17.3278C233.108 17.7299 233.067 18.0917 232.985 18.4937C232.616 21.1874 230.607 22.3935 227.736 22.3935C224.415 22.3935 222.242 20.9864 222.693 18.0113C223.267 13.5889 223.267 8.88504 222.734 4.74405C222.242 1.44734 224.415 0 227.736 0C230.607 0 232.616 1.24632 232.985 3.93997C233.067 4.46262 233.108 4.94507 233.19 5.46771L234.502 5.3471C236.388 5.14609 237.495 6.95525 237.495 11.4179C237.495 15.7599 236.388 17.6495 234.502 17.4484L233.149 17.3278ZM205.144 8.32218C204.857 8.32218 204.611 8.28198 204.324 8.28198C201.249 8.16137 199.814 6.47281 199.814 4.50282C199.814 2.57304 201.249 0.844278 204.324 0.683465C206.579 0.603056 208.547 0.562853 210.802 0.562853C213.017 0.562853 215.026 0.603056 217.24 0.683465C220.274 0.844278 221.75 2.57304 221.75 4.50282C221.75 6.47281 220.274 8.16137 217.24 8.28198C216.789 8.32218 216.297 8.32218 215.846 8.36239C216.42 9.44789 217.978 10.2118 219.577 11.056C221.135 11.9003 222.242 13.3075 221.996 16.966C221.709 21.0266 220.397 21.7502 217.527 21.7502C213.837 21.7502 212.566 21.107 212.566 16.966C212.566 14.5538 212.196 13.026 210.474 11.6993C209.736 11.1364 209.121 12.0209 209.9 12.5034C211.089 13.2673 211.335 14.9156 211.335 17.2876C211.335 21.0266 209.818 21.6296 205.349 21.6296C201.536 21.6296 199.199 20.3029 199.035 16.8052C198.871 13.6291 199.691 12.1013 201.987 11.056C203.668 10.2922 204.775 9.5685 205.144 8.32218ZM200.675 30.3539C200.675 25.4088 205.595 22.5945 217.24 22.5945C228.844 22.5945 233.805 25.4088 233.805 30.3539C233.805 35.3793 229.705 36.9071 217.24 36.9071C204.734 36.9071 200.675 35.3793 200.675 30.3539ZM214.247 30.5549C216.174 31.5198 218.306 31.5198 220.192 30.5549C220.479 30.3941 220.766 29.992 220.602 29.59C220.479 29.2684 220.028 28.9869 219.7 29.188C218.183 29.992 216.174 29.9518 214.739 29.1477C214.452 28.9869 213.96 29.1075 213.755 29.5096C213.55 29.9116 213.755 30.2735 214.247 30.5549Z" fill="#626262"/>
<path d="M264.114 17.2474C264.688 12.9456 264.688 8.56341 264.114 4.54303C263.663 1.40713 265.877 0 269.198 0C272.109 0 274.077 1.20611 274.446 3.73895C275.185 8.16137 275.185 13.3477 274.446 17.7299C274.077 20.2627 272.109 21.4286 269.198 21.4286C265.877 21.4286 263.663 20.0617 264.114 17.2474ZM250.132 14.9558C249.722 15.5187 250.378 16.2021 250.829 15.5187C253.084 12.1817 254.724 10.6942 257.758 10.0509C261.736 9.20667 263.745 11.6189 263.704 14.8352C263.663 18.0515 261.736 20.0617 257.143 20.8658C252.633 21.5894 250.214 21.3482 245.95 20.5039C241.562 19.6999 240.045 14.996 240.045 7.92015C240.045 3.57814 242.423 0.884484 245.417 0.52265C248.697 0.0804066 251.28 1.92978 252.018 4.70384C253.043 8.80463 252.387 11.0962 250.132 14.9558ZM241.111 33.8114C240.578 31.761 240.578 27.1376 241.029 25.248C241.398 23.5594 242.423 22.9966 244.556 22.6749C252.592 21.5894 262.966 21.5894 270.961 22.6749C273.134 22.9966 274.118 23.5594 274.487 25.248C274.898 27.1376 274.939 31.761 274.364 33.8114C273.913 35.5401 273.134 36.1432 270.961 36.3844C262.843 37.1885 252.674 37.1885 244.556 36.3844C242.423 36.1432 241.603 35.5401 241.111 33.8114ZM254.314 29.3488C254.027 29.7508 254.273 30.0322 254.847 30.3539C256.692 31.3188 258.865 31.3188 260.752 30.3539C261.08 30.1528 261.285 29.8714 261.162 29.4292C261.039 29.1075 260.629 28.8261 260.26 29.0271C258.783 29.8714 256.692 29.8312 255.216 28.9869C255.011 28.8261 254.519 28.9869 254.314 29.3488Z" fill="#626262"/>
</svg>
