<?xml version="1.0" encoding="UTF-8"?>
<svg id="a" data-name="Layer 1" xmlns="http://www.w3.org/2000/svg" viewBox="0 0 169.9 210.09">
  <defs>
    <style>
      .b {
        fill: #919191;
        stroke-width: 0px;
      }
    </style>
  </defs>
  <path class="b" d="m156.84,132.54c-10.43-.11-20.22-4.23-27.61-11.62-7.39-7.39-11.51-17.18-11.62-27.61-.07-6.74-5.08-12.61-11.8-13.03-7.34-.47-13.44,5.35-13.44,12.6,0,10.6-4.13,20.56-11.62,28.05-7.39,7.39-17.18,11.51-27.61,11.62-6.74.07-12.61,5.08-13.03,11.8-.47,7.34,5.35,13.44,12.6,13.44,10.6,0,20.56,4.13,28.05,11.62,7.39,7.39,11.51,17.18,11.62,27.61.07,6.74,5.08,12.61,11.8,13.03,7.34.47,13.44-5.35,13.44-12.6,0-10.6,4.13-20.56,11.62-28.05,7.49-7.49,17.46-11.62,28.05-11.62,7.24,0,13.06-6.1,12.6-13.44-.43-6.73-6.29-11.73-13.03-11.8Z"/>
  <path class="b" d="m79.79,82.09c0,22.03-17.86,39.89-39.89,39.89S0,104.12,0,82.09C0,67.54,17.4,30.24,29.22,6.6c4.4-8.8,16.95-8.8,21.34,0,11.82,23.64,29.22,60.94,29.22,75.49Z"/>
</svg>