<svg xmlns="http://www.w3.org/2000/svg"><symbol id="ac" viewBox="0 0 24 24"><g fill="#444" clip-path="url(#a)"><path d="M20.055 10.815s-.06-.045-.09-.045H4.05s-.075 0-.09.045c-.045.045-.06.15-.03.3l.63 2.28h14.88l.63-2.28c.045-.15.015-.255-.03-.3h.015z"/><path d="M20.655 3.6H3.345c-1.02 0-1.845.825-1.845 1.845v6.105c0 1.02.825 1.845 1.845 1.845h.84l-.6-2.19c-.06-.24-.03-.45.09-.615.09-.12.225-.18.375-.18h15.9c.15 0 .285.06.375.18.12.15.15.375.09.615l-.6 2.19h.84c1.02 0 1.845-.825 1.845-1.845V5.445c0-1.02-.825-1.845-1.845-1.845zm.09 2.4c0 .225-.18.405-.405.405h-2.01A.403.403 0 0 1 17.925 6v-.6c0-.225.18-.405.405-.405h2.01c.225 0 .405.18.405.405V6zM12 14.1c-.39 0-.705.345-.705.765v5.37c0 .42.315.765.705.765.39 0 .705-.345.705-.765v-5.37c0-.42-.315-.765-.705-.765zm-4.2 0a.705.705 0 0 0-.705.705V18.3a.705.705 0 1 0 1.41 0v-3.495A.705.705 0 0 0 7.8 14.1zm8.4 0a.705.705 0 0 0-.705.705V18.3a.705.705 0 0 0 1.41 0v-3.495a.704.704 0 0 0-.705-.705z"/></g><defs><clipPath id="a"><path fill="#fff" d="M0 0h24v24H0z"/></clipPath></defs></symbol><symbol id="breakroom" viewBox="0 0 24 24"><g clip-path="url(#a)"><g clip-path="url(#b)"><path fill="#444" d="M18.405 5.715a3.743 3.743 0 0 0-3.63-2.85H5.25a3.75 3.75 0 0 0-3.75 3.75v6c0 4.695 3.825 8.52 8.52 8.52 3.27 0 6.225-1.86 7.65-4.77 2.58.195 4.83-1.935 4.845-4.53v-1.59c0-2.355-1.8-4.29-4.095-4.515l-.015-.015zm1.365 4.515v1.59c0 .825-.555 1.515-1.29 1.74.03-.315.06-.63.06-.945V8.52c.72.24 1.23.915 1.23 1.71zm-3.975-3.615v6a5.787 5.787 0 0 1-5.775 5.775 5.787 5.787 0 0 1-5.775-5.775v-6c0-.555.45-1.02 1.02-1.02h9.525c.555 0 1.02.45 1.02 1.02h-.015z"/></g></g><defs><clipPath id="a"><path fill="#fff" d="M0 0h24v24H0z"/></clipPath><clipPath id="b"><path fill="#fff" d="M0 0h24v24H0z"/></clipPath></defs></symbol><symbol id="tapwater" viewBox="0 0 24 24"><g clip-path="url(#a)"><mask id="b" width="16" height="22" x="4" y="1" maskUnits="userSpaceOnUse" style="mask-type:luminance"><path fill="#fff" d="M4.5 1.5h15v21h-15v-21z"/></mask><g mask="url(#b)"><path fill="#444" d="M12 22.5c-4.14 0-7.5-3.528-7.5-7.875 0-3.741 5.085-10.758 6.508-12.645a1.193 1.193 0 0 1 .958-.48h.069c.374 0 .723.173.957.48 1.423 1.887 6.508 8.904 6.508 12.645 0 4.347-3.36 7.875-7.5 7.875zm-3.75-7.22a.643.643 0 0 0-.625-.655.643.643 0 0 0-.625.657c0 2.538 1.957 4.593 4.374 4.593.345 0 .626-.296.626-.657a.644.644 0 0 0-.626-.655c-1.725 0-3.124-1.469-3.124-3.282z"/></g></g><defs><clipPath id="a"><path fill="#fff" d="M0 0h24v24H0z"/></clipPath></defs></symbol><symbol id="garage" viewBox="0 0 24 24"><g clip-path="url(#a)"><path fill="#444" d="M1.5 21.51V8.46c0-1.08.522-2.049 1.32-2.448l8.79-4.414a.843.843 0 0 1 .78 0l8.79 4.414c.798.399 1.32 1.373 1.32 2.448v13.053c0 .547-.351.988-.788.988h-1.575c-.434 0-.787-.44-.787-.99V10.633c0-.73-.47-1.32-1.05-1.32H5.7c-.58 0-1.05.59-1.05 1.32v10.881c0 .547-.351.988-.788.988H2.287c-.434 0-.787-.442-.787-.991zm16.012.99H6.489c-.436 0-.788-.441-.788-.99v-2.307h12.6v2.309c0 .547-.351.988-.788.988zM5.7 17.884v-2.638h12.6v2.638H5.7zm0-3.957v-3.296h12.6v3.296H5.7z"/></g><defs><clipPath id="a"><path fill="#fff" d="M0 0h24v24H0z"/></clipPath></defs></symbol><symbol id="light" viewBox="0 0 24 24"><path fill="#444" d="M15.41 17.25c.409-1.308 1.256-2.424 2.096-3.536.221-.29.443-.582.656-.877A6.994 6.994 0 0 0 19.5 8.723c0-3.99-3.358-7.223-7.5-7.223-4.141 0-7.5 3.232-7.5 7.22 0 1.53.495 2.948 1.338 4.112.213.296.435.587.657.878.843 1.111 1.69 2.232 2.096 3.535h6.819v.005zM12 22.5c1.884 0 3.41-1.468 3.41-3.282v-.655H8.59v.657c0 1.81 1.526 3.28 3.41 3.28zM8.59 8.718a.67.67 0 0 1-.68.657.672.672 0 0 1-.683-.657c0-2.538 2.134-4.593 4.773-4.593.375 0 .682.295.682.657 0 .36-.307.655-.682.655-1.884 0-3.41 1.469-3.41 3.282v-.001z"/></symbol><symbol id="location" viewBox="0 0 24 24"><path fill="#1B1B1B" d="M12 2a8 8 0 0 0-8 8c0 5.4 7.05 11.5 7.35 11.76a1 1 0 0 0 1.3 0C12.998 21.5 20 15.4 20 10a8 8 0 0 0-8-8zm0 17.65c-2.13-2-6-6.31-6-9.65a6 6 0 0 1 12 0c0 3.34-3.87 7.66-6 9.65zM12 6a4 4 0 1 0-.155 8A4 4 0 0 0 12 6zm0 6a2 2 0 1 1 0-4 2 2 0 0 1 0 4z"/></symbol><symbol id="time" viewBox="0 0 24 24"><path fill="#1B1B1B" d="M11 2a10 10 0 1 0 0 20 10 10 0 0 0 0-20zm0 18a8.002 8.002 0 1 1-.22-16.003A8.002 8.002 0 0 1 11 20zm0-14a1 1 0 0 0-1 1v4.42l-2.1 1.21a1 1 0 0 0 .5 1.87c.176 0 .348-.044.5-.13l2.6-1.5.09-.09.16-.13a.863.863 0 0 0 .1-.16.883.883 0 0 0 .08-.17.65.65 0 0 0 .05-.2L12 12V7a1 1 0 0 0-1-1z"/></symbol><symbol id="underside" viewBox="0 0 24 24"><g clip-path="url(#a)"><g fill="#444" clip-path="url(#b)"><path d="M21.286 19.3h-8.6s.028-.117.028-.175V9.327c.872-1.01 2.172-.966 3 .161a.72.72 0 0 0 .572.293.698.698 0 0 0 .377-.107.723.723 0 0 0 .265-.296.745.745 0 0 0-.07-.768C15.8 7.16 14.1 6.794 12.713 7.497V6.355c.686-1.026 1.715-1.64 2.857-1.64 1.143 0 2.272.644 2.972 1.771.128.22.371.352.6.352a.59.59 0 0 0 .371-.117c.329-.22.443-.674.229-1.01-.943-1.538-2.5-2.461-4.172-2.461-1.357 0-2.628.615-3.571 1.655-.942-1.055-2.213-1.655-3.57-1.655-1.672 0-3.243.923-4.172 2.46a.735.735 0 0 0 .229 1.01c.328.22.771.118.985-.234.686-1.127 1.772-1.772 2.972-1.772s2.171.6 2.857 1.64v5.404c-1.386-.703-3.086-.336-4.143 1.113a.74.74 0 0 0 .143 1.025c.314.25.757.176 1-.146.829-1.128 2.129-1.171 3-.161v5.52s.014.118.029.177H2.714c-.4 0-.714.322-.714.732s.314.732.714.732h18.572c.4 0 .714-.322.714-.732a.716.716 0 0 0-.714-.732v.014z"/><path d="M5.125 10.088a.507.507 0 0 0 .237-.05.444.444 0 0 0 .2-.138.586.586 0 0 0 .188-.438.542.542 0 0 0-.05-.237.444.444 0 0 0-.138-.2.444.444 0 0 0-.2-.138.614.614 0 0 0-.675.138.444.444 0 0 0-.137.2.542.542 0 0 0-.05.238c0 .162.063.325.188.437a.586.586 0 0 0 .437.188zm13.313-1.063a.444.444 0 0 0-.138.2.542.542 0 0 0-.05.238c0 .162.063.325.188.437a.586.586 0 0 0 .437.188.507.507 0 0 0 .238-.05.444.444 0 0 0 .2-.138.586.586 0 0 0 .187-.438.542.542 0 0 0-.05-.237.444.444 0 0 0-.137-.2.444.444 0 0 0-.2-.138.614.614 0 0 0-.675.138zm-1.825 2.362a.614.614 0 0 0-.675.138.444.444 0 0 0-.138.2.542.542 0 0 0-.05.238c0 .162.063.325.188.437a.586.586 0 0 0 .437.188.507.507 0 0 0 .238-.05.444.444 0 0 0 .2-.138.586.586 0 0 0 .187-.438.542.542 0 0 0-.05-.237.445.445 0 0 0-.137-.2.445.445 0 0 0-.2-.138zm-8.75 4.9a.444.444 0 0 0 .2-.137.586.586 0 0 0 .187-.437.542.542 0 0 0-.05-.238.444.444 0 0 0-.137-.2.444.444 0 0 0-.2-.138.614.614 0 0 0-.676.138.444.444 0 0 0-.137.2.542.542 0 0 0-.05.238c0 .162.063.325.188.437a.586.586 0 0 0 .437.188.507.507 0 0 0 .237-.05z"/></g></g><defs><clipPath id="a"><path fill="#fff" d="M0 0h24v24H0z"/></clipPath><clipPath id="b"><path fill="#fff" d="M0 0h24v24H0z"/></clipPath></defs></symbol><symbol id="tel" viewBox="0 0 24 24"><g clip-path="url(#a)"><path fill="#444" d="M19.086 12.953c-.21 0-.429-.067-.639-.114a8.982 8.982 0 0 1-1.247-.372 1.905 1.905 0 0 0-2.361.952l-.21.428a11.601 11.601 0 0 1-2.533-1.904A11.605 11.605 0 0 1 10.19 9.41l.4-.267a1.904 1.904 0 0 0 .953-2.362 9.816 9.816 0 0 1-.371-1.248 7.146 7.146 0 0 1-.115-.647A2.858 2.858 0 0 0 8.2 2.514H5.343a2.857 2.857 0 0 0-2.857 3.247A18.094 18.094 0 0 0 18.219 21.44h.362a2.858 2.858 0 0 0 2.858-2.868v-2.857a2.857 2.857 0 0 0-2.353-2.761zm.476 5.714a.952.952 0 0 1-.69.914 1.008 1.008 0 0 1-.413.038A16.19 16.19 0 0 1 4.446 5.543a1.039 1.039 0 0 1 .238-.782.951.951 0 0 1 .715-.322h2.857a.953.953 0 0 1 .953.751c.11.768.305 1.522.581 2.247l-1.334.62a.953.953 0 0 0-.467 1.267 13.8 13.8 0 0 0 6.668 6.666.953.953 0 0 0 .725 0 .953.953 0 0 0 .542-.494l.59-1.335c.493.178.996.323 1.505.439.254.057.511.104.771.143a.952.952 0 0 1 .753.953l.018 2.971z"/></g><defs><clipPath id="a"><path fill="#fff" d="M0 0h20v20H0z" transform="translate(2 2)"/></clipPath></defs></symbol><symbol id="star" viewBox="0 0 24 24"><path fill="#FABF35" stroke="#FABF35" stroke-linecap="round" stroke-linejoin="round" stroke-width="1.5" d="M13.364 3.691v.001l1.758 3.517.001.001c.157.32.428.607.721.823.295.218.648.391.999.45l3.19.53c.948.158 1.395.556 1.518.941.124.384-.006.965-.69 1.644v.002l-2.48 2.48c-.272.27-.463.646-.57 1.021-.108.376-.144.795-.06 1.168v.002l.71 3.07c.272 1.18.044 1.79-.266 2.015-.31.226-.962.258-2.008-.36l-2.989-1.769c-.349-.207-.783-.297-1.194-.297-.413 0-.848.09-1.2.296H10.8l-2.99 1.77c-1.038.617-1.691.584-2.003.356-.312-.227-.541-.837-.27-2.01l.71-3.07v-.003c.084-.373.049-.792-.06-1.168-.106-.375-.298-.75-.57-1.021L3.14 11.6c-.68-.68-.81-1.261-.687-1.647.122-.384.566-.782 1.515-.94l3.19-.53c.346-.059.697-.234.99-.45.292-.217.562-.503.72-.823l1.758-3.517c.45-.896.971-1.207 1.373-1.207.401 0 .92.31 1.366 1.205z"/></symbol><symbol id="waterproof" viewBox="0 0 24 24"><g clip-path="url(#a)"><g fill="#444" clip-path="url(#b)"><path d="M5.813 5.28a1.38 1.38 0 0 0 1.375-1.375c0-.509-.62-1.568-1.018-2.214a.424.424 0 0 0-.715 0c-.412.646-1.018 1.705-1.018 2.214 0 .756.62 1.375 1.375 1.375zm12.375 2.75a1.38 1.38 0 0 0 1.375-1.375c0-.509-.62-1.568-1.018-2.214a.423.423 0 0 0-.715 0c-.412.646-1.017 1.705-1.017 2.214 0 .756.618 1.375 1.375 1.375zM12 13.626a3.437 3.437 0 0 0 3.438-3.437c0-1.265-1.527-3.905-2.544-5.528a1.041 1.041 0 0 0-1.774 0C10.102 6.27 8.576 8.91 8.576 10.19a3.437 3.437 0 0 0 3.438 3.437H12zM9.8 10.85c.096 0 .165.082.165.165 0 .66.536 1.21 1.196 1.21.097 0 .179.082.179.165 0 .082-.082.179-.179.179a1.54 1.54 0 0 1-1.54-1.554c0-.096.083-.165.179-.165z"/><path d="M20.938 19.126h-7.852l6.476-5.404v1.28a.68.68 0 0 0 .688.687.68.68 0 0 0 .688-.688v-2.75s-.014-.069-.014-.096c0-.041 0-.096-.028-.137a.555.555 0 0 0-.069-.124l-.04-.083s-.014 0-.028-.014a.298.298 0 0 0-.124-.096.247.247 0 0 0-.096-.069l-.124-.04c-.041 0-.096-.028-.137-.028H17.5a.68.68 0 0 0-.688.687.68.68 0 0 0 .688.688h.852L11.19 18.92l-5.445-5.445a.68.68 0 0 0-.976 0 .68.68 0 0 0 0 .976l4.675 4.675h-6.38a.68.68 0 0 0-.688.688.68.68 0 0 0 .688.687h17.875a.68.68 0 0 0 .687-.687.68.68 0 0 0-.688-.688z"/></g></g><defs><clipPath id="a"><path fill="#fff" d="M0 0h24v24H0z"/></clipPath><clipPath id="b"><path fill="#fff" d="M0 0h24v24H0z"/></clipPath></defs></symbol></svg>