<?xml version="1.0" encoding="UTF-8"?><svg id="a" xmlns="http://www.w3.org/2000/svg" viewBox="0 0 364.2 153"><path d="m232.1,103c0,27.6-22.4,50-50,50s-50-22.4-50-50,21.8-65,36.7-94.7c5.5-11,21.3-11,26.8,0,14.8,29.7,36.7,76.4,36.7,94.7Z" fill="#919191" stroke-width="0"/><path d="m90.1,9.6c1.3,9.7.8,20.2,1,30,0,11.3.2,22.7.2,34v17.9h9c6.1,0,14.3,2.7,14.7,10.1,0,8.8-6.5,11.6-14.3,12-.8,0-9,.6-9.5-.2v14.3c0,6.1.6,16.4-5.5,20.4-2.5,1.7-9.7,1.9-12.8,1-5-1.7-5.9-8.4-6.3-13-.2-1.9.4-21.6-.8-21.6H29c-8,0-18.1.8-24.4-4-9.9-7.6-1.7-18.7,4-26,10.7-14.3,20.4-29.4,30.5-43.9,5.5-7.6,12-14.3,17.2-21.8,4-5.9,8.2-12.8,15.1-16.2,6.7-3.2,13.4-3.6,16.8,1.3.8,1.3,1.7,3.6,1.9,5.9Zm-22.7,31.9l-34.9,49.1h34.9v-49.1Z" fill="#919191" stroke-width="0"/><path d="m339.2,9.6c1.3,9.7.8,20.2,1,30,0,11.3.2,22.7.2,34v17.9h9c6.1,0,14.3,2.7,14.7,10.1,0,8.8-6.5,11.6-14.3,12-.8,0-9,.6-9.5-.2v14.3c0,6.1.6,16.4-5.5,20.4-2.5,1.7-9.7,1.9-12.8,1-5-1.7-5.9-8.4-6.3-13-.2-1.9.4-21.6-.8-21.6h-37c-8,0-18.1.8-24.4-4-9.9-7.6-1.7-18.7,4-26,10.7-14.3,20.4-29.4,30.5-43.9,5.5-7.6,12-14.3,17.2-21.8,4-5.9,8.2-12.8,15.1-16.2,6.7-3.2,13.4-3.6,16.8,1.3.8,1.3,1.7,3.6,1.9,5.9Zm-22.7,31.9l-34.9,49.1h34.9v-49.1Z" fill="#919191" stroke-width="0"/></svg>