<svg width="24" height="25" viewBox="0 0 24 25" fill="none" xmlns="http://www.w3.org/2000/svg">
<path d="M12 1.5C18.072 1.5 23 6.428 23 12.5C23 18.572 18.072 23.5 12 23.5C5.928 23.5 1 18.572 1 12.5C1 6.428 5.928 1.5 12 1.5ZM12 5.9C9.877 5.9 8.15 7.627 8.15 9.75C8.15 11.873 9.877 13.6 12 13.6C14.123 13.6 15.85 11.873 15.85 9.75C15.85 7.627 14.123 5.9 12 5.9ZM12 21.3C14.233 21.3 16.873 20.398 18.754 18.132C16.8272 16.6203 14.449 15.7987 12 15.7987C9.55098 15.7987 7.17277 16.6203 5.246 18.132C7.127 20.398 9.767 21.3 12 21.3Z" fill="#C7C7C7"/>
<rect x="0.5" y="-0.5" width="23" height="23" rx="11.5" transform="matrix(-1 0 0 1 24 1.5)" stroke="#BCBCBC"/>
</svg>
