<?xml version="1.0" encoding="UTF-8"?><svg id="a" xmlns="http://www.w3.org/2000/svg" viewBox="0 0 80 170"><path d="m54.2,148.8c-2.9,0-5.5-1.2-7.6-3.2-2-2-3.2-4.7-3.2-7.5,0-1.8-1.4-3.4-3.2-3.6-2-.1-3.7,1.5-3.7,3.4,0,2.9-1.1,5.6-3.2,7.7s-4.7,3.1-7.6,3.2c-1.8,0-3.5,1.4-3.6,3.2-.1,2,1.5,3.7,3.5,3.7,2.9,0,5.6,1.1,7.7,3.2,2,2,3.2,4.7,3.2,7.5,0,1.8,1.4,3.4,3.2,3.6,2,.1,3.7-1.5,3.7-3.4,0-2.9,1.1-5.6,3.2-7.7s4.8-3.2,7.7-3.2,3.6-1.7,3.5-3.7c-.1-1.8-1.7-3.2-3.6-3.2h0Z" fill="#919191" stroke-width="0"/><path d="m0,39.9C0,17.9,17.9,0,40,0s40,17.9,40,39.9-17.4,51.8-29.3,75.5c-4.4,8.8-17,8.8-21.4,0C17.5,91.7,0,54.4,0,39.9h0Z" fill="#919191" stroke-width="0"/></svg>